<svg width="640" height="400" viewBox="0 0 640 400" fill="none" xmlns="http://www.w3.org/2000/svg" role="img" aria-hidden="true">
  <rect x="20" y="28" width="600" height="344" rx="28" fill="#F3F7FF" stroke="#C8D8F6" stroke-width="2" />
  <rect x="52" y="72" width="260" height="236" rx="22" fill="#FFFFFF" stroke="#C8D8F6" stroke-width="2" />
  <rect x="328" y="72" width="260" height="236" rx="22" fill="#FFFFFF" stroke="#C8D8F6" stroke-width="2" />

  <rect x="92" y="104" width="176" height="184" rx="18" fill="#F6FAFF" stroke="#D6E1F6" stroke-width="2" />
  <rect x="112" y="124" width="108" height="12" rx="6" fill="#D8E5FF" />
  <circle cx="238" cy="130" r="14" fill="#1F66F4" />
  <rect x="236" y="122" width="4" height="12" rx="2" fill="#FFFFFF" />
  <circle cx="238" cy="138" r="2.5" fill="#FFFFFF" />
  <rect x="112" y="150" width="130" height="10" rx="5" fill="#D8E5FF" />
  <rect x="112" y="168" width="140" height="8" rx="4" fill="#E5EEFF" />
  <rect x="112" y="184" width="112" height="8" rx="4" fill="#E5EEFF" />
  <rect x="112" y="204" width="126" height="8" rx="4" fill="#E5EEFF" />

  <rect x="112" y="226" width="120" height="24" rx="12" fill="#EAF2FF" stroke="#C8D8F6" stroke-width="2" />
  <circle cx="126" cy="238" r="7" fill="#2F7DFF" />
  <path d="M123 238L125 240L130 234" stroke="#FFFFFF" stroke-width="2" stroke-linecap="round" stroke-linejoin="round" />
  <rect x="140" y="234" width="70" height="8" rx="4" fill="#CFE0FF" />

  <rect x="352" y="118" width="88" height="24" rx="12" fill="#1F66F4" />
  <rect x="356" y="124" width="36" height="12" rx="6" fill="#2F7DFF" />
  <rect x="394" y="142" width="16" height="90" rx="8" fill="#2F7DFF" />
  <rect x="398" y="152" width="8" height="70" rx="4" fill="#1F66F4" />
  <rect x="340" y="232" width="110" height="16" rx="8" fill="#CFE0FF" />

  <rect x="462" y="104" width="112" height="184" rx="16" fill="#F6FAFF" stroke="#D6E1F6" stroke-width="2" />
  <circle cx="478" cy="132" r="6" fill="#1F66F4" />
  <path d="M475 132L477 134L481 128" stroke="#FFFFFF" stroke-width="2" stroke-linecap="round" stroke-linejoin="round" />
  <rect x="490" y="128" width="70" height="8" rx="4" fill="#D8E5FF" />
  <circle cx="478" cy="160" r="6" fill="#1F66F4" />
  <path d="M475 160L477 162L481 156" stroke="#FFFFFF" stroke-width="2" stroke-linecap="round" stroke-linejoin="round" />
  <rect x="490" y="156" width="62" height="8" rx="4" fill="#E5EEFF" />
  <circle cx="478" cy="188" r="6" fill="#1F66F4" />
  <path d="M475 188L477 190L481 184" stroke="#FFFFFF" stroke-width="2" stroke-linecap="round" stroke-linejoin="round" />
  <rect x="490" y="184" width="66" height="8" rx="4" fill="#E5EEFF" />

  <rect x="472" y="220" width="84" height="20" rx="10" fill="#EAF2FF" stroke="#C8D8F6" stroke-width="2" />
  <circle cx="484" cy="230" r="5" fill="#1F66F4" />
  <rect x="494" y="226" width="48" height="8" rx="4" fill="#CFE0FF" />
</svg>
