<svg width="960" height="620" viewBox="0 0 960 620" fill="none" xmlns="http://www.w3.org/2000/svg" role="img" aria-label="Citizens using online voting platform">
  <defs>
    <linearGradient id="bg" x1="0" y1="0" x2="960" y2="620" gradientUnits="userSpaceOnUse">
      <stop stop-color="#F6FAFF"/>
      <stop offset="1" stop-color="#E7F0FF"/>
    </linearGradient>
    <linearGradient id="panel" x1="120" y1="110" x2="740" y2="470" gradientUnits="userSpaceOnUse">
      <stop stop-color="#FFFFFF"/>
      <stop offset="1" stop-color="#F2F7FF"/>
    </linearGradient>
  </defs>

  <rect width="960" height="620" rx="36" fill="url(#bg)"/>
  <circle cx="130" cy="96" r="72" fill="#D9E8FF"/>
  <circle cx="855" cy="525" r="88" fill="#D1E3FF"/>

  <rect x="86" y="94" width="788" height="432" rx="28" fill="url(#panel)" stroke="#C9D9F5" stroke-width="2"/>

  <rect x="132" y="146" width="338" height="160" rx="18" fill="#EDF4FF" stroke="#C8D8F5"/>
  <rect x="526" y="146" width="302" height="160" rx="18" fill="#FFFFFF" stroke="#C8D8F5"/>
  <rect x="132" y="340" width="696" height="142" rx="18" fill="#FFFFFF" stroke="#C8D8F5"/>

  <rect x="168" y="176" width="94" height="96" rx="12" fill="#1F66F4"/>
  <rect x="182" y="190" width="66" height="14" rx="7" fill="#DCE9FF"/>
  <path d="M196 228L214 246L238 220" stroke="#DCE9FF" stroke-width="8" stroke-linecap="round" stroke-linejoin="round"/>

  <rect x="284" y="178" width="146" height="16" rx="8" fill="#2D4F84"/>
  <rect x="284" y="210" width="122" height="12" rx="6" fill="#5E7398"/>
  <rect x="284" y="236" width="104" height="12" rx="6" fill="#8AA1C7"/>

  <rect x="558" y="256" width="26" height="30" rx="4" fill="#2F7DFF"/>
  <rect x="596" y="226" width="26" height="60" rx="4" fill="#1F66F4"/>
  <rect x="634" y="200" width="26" height="86" rx="4" fill="#274A84"/>
  <rect x="672" y="238" width="26" height="48" rx="4" fill="#6092FF"/>
  <rect x="710" y="180" width="26" height="106" rx="4" fill="#173A72"/>

  <path d="M548 192C572 178 602 184 622 203C642 222 669 228 696 218C722 208 747 212 767 230" stroke="#1F66F4" stroke-width="5" stroke-linecap="round"/>
  <circle cx="767" cy="230" r="7" fill="#1F66F4"/>

  <circle cx="194" cy="402" r="28" fill="#1F66F4"/>
  <rect x="184" y="398" width="20" height="38" rx="8" fill="#DCE9FF"/>
  <path d="M177 433C177 421 186 412 198 412H204C216 412 225 421 225 433V448H177V433Z" fill="#DCE9FF"/>

  <rect x="244" y="378" width="274" height="14" rx="7" fill="#274A84"/>
  <rect x="244" y="406" width="250" height="12" rx="6" fill="#6880A8"/>
  <rect x="244" y="432" width="222" height="12" rx="6" fill="#9AB0D2"/>

  <rect x="560" y="372" width="236" height="78" rx="14" fill="#EAF1FF" stroke="#C5D6F4"/>
  <rect x="578" y="388" width="114" height="14" rx="7" fill="#2D4F84"/>
  <rect x="578" y="412" width="160" height="10" rx="5" fill="#6280AE"/>
  <rect x="578" y="430" width="138" height="10" rx="5" fill="#8FA7CB"/>
  <circle cx="760" cy="410" r="18" fill="#1F66F4"/>
  <path d="M752 410L758 416L769 404" stroke="white" stroke-width="4" stroke-linecap="round" stroke-linejoin="round"/>

  <text x="132" y="78" fill="#203A67" font-family="Arial, sans-serif" font-size="26" font-weight="700">Civic Voting Dashboard</text>
</svg>
